<svg id="visual" viewBox="0 0 1920 1920" width="1920" height="1920" xmlns="http://www.w3.org/2000/svg" xmlns:xlink="http://www.w3.org/1999/xlink" version="1.1"><g stroke-width="1" stroke-linejoin="bevel"><path d="M1033.7 862.3L875.3 1062.7L1070.7 1032.7Z" fill="#e8a040" stroke="#e8a040"></path><path d="M1033.7 862.3L823.3 882.3L875.3 1062.7Z" fill="#e8a040" stroke="#e8a040"></path><path d="M1033.7 862.3L892.3 678L823.3 882.3Z" fill="#dc8433" stroke="#dc8433"></path><path d="M631 1072.7L864.3 1254L875.3 1062.7Z" fill="#de8835" stroke="#de8835"></path><path d="M875.3 1062.7L1051.7 1283L1070.7 1032.7Z" fill="#e29239" stroke="#e29239"></path><path d="M1051.7 1283L1258 1072.7L1070.7 1032.7Z" fill="#e4973b" stroke="#e4973b"></path><path d="M1070.7 1032.7L1307 858.3L1033.7 862.3Z" fill="#e69c3e" stroke="#e69c3e"></path><path d="M1033.7 862.3L1030.7 656L892.3 678Z" fill="#d97f31" stroke="#d97f31"></path><path d="M892.3 678L668 840.3L823.3 882.3Z" fill="#dc8433" stroke="#dc8433"></path><path d="M823.3 882.3L631 1072.7L875.3 1062.7Z" fill="#d77a2f" stroke="#d77a2f"></path><path d="M1287 646L1030.7 656L1033.7 862.3Z" fill="#e08d37" stroke="#e08d37"></path><path d="M864.3 1254L1051.7 1283L875.3 1062.7Z" fill="#dc8433" stroke="#dc8433"></path><path d="M668 840.3L631 1072.7L823.3 882.3Z" fill="#d77a2f" stroke="#d77a2f"></path><path d="M1258 1072.7L1307 858.3L1070.7 1032.7Z" fill="#e8a040" stroke="#e8a040"></path><path d="M631 1072.7L634 1243L864.3 1254Z" fill="#e08d37" stroke="#e08d37"></path><path d="M888.3 1516.3L1072.7 1493.3L1051.7 1283Z" fill="#ecaa46" stroke="#ecaa46"></path><path d="M815.3 410.7L633 677L892.3 678Z" fill="#d97f31" stroke="#d97f31"></path><path d="M892.3 678L633 677L668 840.3Z" fill="#e08d37" stroke="#e08d37"></path><path d="M668 840.3L447.7 1050.7L631 1072.7Z" fill="#de8835" stroke="#de8835"></path><path d="M1072.7 1493.3L1256 1311L1051.7 1283Z" fill="#eaa543" stroke="#eaa543"></path><path d="M1051.7 1283L1256 1311L1258 1072.7Z" fill="#e08d37" stroke="#e08d37"></path><path d="M1258 1072.7L1482.3 1026.7L1307 858.3Z" fill="#eaa543" stroke="#eaa543"></path><path d="M1307 858.3L1287 646L1033.7 862.3Z" fill="#de8835" stroke="#de8835"></path><path d="M402.7 853.3L447.7 1050.7L668 840.3Z" fill="#e69c3e" stroke="#e69c3e"></path><path d="M631 1072.7L459.7 1252L634 1243Z" fill="#e69c3e" stroke="#e69c3e"></path><path d="M1494.3 1279L1482.3 1026.7L1258 1072.7Z" fill="#e69c3e" stroke="#e69c3e"></path><path d="M1307 858.3L1529.3 672L1287 646Z" fill="#e8a040" stroke="#e8a040"></path><path d="M1287 646L1083.7 449.7L1030.7 656Z" fill="#e8a040" stroke="#e8a040"></path><path d="M1030.7 656L1083.7 449.7L892.3 678Z" fill="#dc8433" stroke="#dc8433"></path><path d="M888.3 1516.3L1051.7 1283L864.3 1254Z" fill="#dc8433" stroke="#dc8433"></path><path d="M610 1484.3L888.3 1516.3L864.3 1254Z" fill="#e8a040" stroke="#e8a040"></path><path d="M610 1484.3L864.3 1254L634 1243Z" fill="#e8a040" stroke="#e8a040"></path><path d="M1482.3 1026.7L1511.3 841.3L1307 858.3Z" fill="#dc8433" stroke="#dc8433"></path><path d="M1287 646L1263 399.7L1083.7 449.7Z" fill="#eaa543" stroke="#eaa543"></path><path d="M633 677L402.7 853.3L668 840.3Z" fill="#de8835" stroke="#de8835"></path><path d="M1083.7 449.7L815.3 410.7L892.3 678Z" fill="#ecaa46" stroke="#ecaa46"></path><path d="M633 677L465.7 625L402.7 853.3Z" fill="#e69c3e" stroke="#e69c3e"></path><path d="M209.3 1292L459.7 1252L447.7 1050.7Z" fill="#eaa543" stroke="#eaa543"></path><path d="M447.7 1050.7L459.7 1252L631 1072.7Z" fill="#ecaa46" stroke="#ecaa46"></path><path d="M617 389.7L465.7 625L633 677Z" fill="#de8835" stroke="#de8835"></path><path d="M1072.7 1493.3L1290 1476.3L1256 1311Z" fill="#d97f31" stroke="#d97f31"></path><path d="M1256 1311L1494.3 1279L1258 1072.7Z" fill="#e4973b" stroke="#e4973b"></path><path d="M1489.3 1471.3L1290 1476.3L1258 1681.7Z" fill="#e4973b" stroke="#e4973b"></path><path d="M1290 1476.3L1494.3 1279L1256 1311Z" fill="#e8a040" stroke="#e8a040"></path><path d="M1482.3 1026.7L1669.7 823.3L1511.3 841.3Z" fill="#dc8433" stroke="#dc8433"></path><path d="M459.7 1252L610 1484.3L634 1243Z" fill="#de8835" stroke="#de8835"></path><path d="M1669.7 823.3L1529.3 672L1511.3 841.3Z" fill="#e69c3e" stroke="#e69c3e"></path><path d="M1511.3 841.3L1529.3 672L1307 858.3Z" fill="#ecaa46" stroke="#ecaa46"></path><path d="M1457.3 423.7L1263 399.7L1287 646Z" fill="#d97f31" stroke="#d97f31"></path><path d="M1083.7 449.7L876.3 250.3L815.3 410.7Z" fill="#e08d37" stroke="#e08d37"></path><path d="M634 174.3L617 389.7L815.3 410.7Z" fill="#de8835" stroke="#de8835"></path><path d="M815.3 410.7L617 389.7L633 677Z" fill="#de8835" stroke="#de8835"></path><path d="M459.7 1252L459.7 1467.3L610 1484.3Z" fill="#eaa543" stroke="#eaa543"></path><path d="M833.3 1725.7L1096.7 1702.7L888.3 1516.3Z" fill="#e8a040" stroke="#e8a040"></path><path d="M209.3 1292L459.7 1467.3L459.7 1252Z" fill="#ecaa46" stroke="#ecaa46"></path><path d="M225.3 641L251.3 884.3L402.7 853.3Z" fill="#e29239" stroke="#e29239"></path><path d="M402.7 853.3L251.3 884.3L447.7 1050.7Z" fill="#d77a2f" stroke="#d77a2f"></path><path d="M225.3 641L402.7 853.3L465.7 625Z" fill="#e4973b" stroke="#e4973b"></path><path d="M1043.7 248.3L876.3 250.3L1083.7 449.7Z" fill="#dc8433" stroke="#dc8433"></path><path d="M1678.7 1096.7L1669.7 823.3L1482.3 1026.7Z" fill="#eaa543" stroke="#eaa543"></path><path d="M1263 399.7L1043.7 248.3L1083.7 449.7Z" fill="#e8a040" stroke="#e8a040"></path><path d="M1494.3 1279L1678.7 1096.7L1482.3 1026.7Z" fill="#d77a2f" stroke="#d77a2f"></path><path d="M1258 1681.7L1290 1476.3L1072.7 1493.3Z" fill="#e8a040" stroke="#e8a040"></path><path d="M1290 1476.3L1489.3 1471.3L1494.3 1279Z" fill="#e69c3e" stroke="#e69c3e"></path><path d="M1494.3 1279L1701.7 1259L1678.7 1096.7Z" fill="#d97f31" stroke="#d97f31"></path><path d="M1529.3 672L1457.3 423.7L1287 646Z" fill="#de8835" stroke="#de8835"></path><path d="M1263 399.7L1264 230.3L1043.7 248.3Z" fill="#ecaa46" stroke="#ecaa46"></path><path d="M1718.7 442.7L1457.3 423.7L1529.3 672Z" fill="#e8a040" stroke="#e8a040"></path><path d="M833.3 1725.7L888.3 1516.3L636 1692.7Z" fill="#dc8433" stroke="#dc8433"></path><path d="M888.3 1516.3L1096.7 1702.7L1072.7 1493.3Z" fill="#e4973b" stroke="#e4973b"></path><path d="M634 174.3L459.7 391.7L617 389.7Z" fill="#e29239" stroke="#e29239"></path><path d="M617 389.7L459.7 391.7L465.7 625Z" fill="#ecaa46" stroke="#ecaa46"></path><path d="M636 1692.7L888.3 1516.3L610 1484.3Z" fill="#de8835" stroke="#de8835"></path><path d="M1096.7 1702.7L1258 1681.7L1072.7 1493.3Z" fill="#e08d37" stroke="#e08d37"></path><path d="M0 886.3L176.3 1048.7L251.3 884.3Z" fill="#e08d37" stroke="#e08d37"></path><path d="M251.3 884.3L176.3 1048.7L447.7 1050.7Z" fill="#d97f31" stroke="#d97f31"></path><path d="M460.7 1668.7L636 1692.7L610 1484.3Z" fill="#e4973b" stroke="#e4973b"></path><path d="M1690.7 1483.3L1701.7 1259L1494.3 1279Z" fill="#e29239" stroke="#e29239"></path><path d="M1920 826.3L1690.7 644L1669.7 823.3Z" fill="#d97f31" stroke="#d97f31"></path><path d="M1457.3 423.7L1264 230.3L1263 399.7Z" fill="#dc8433" stroke="#dc8433"></path><path d="M815.3 0L634 174.3L876.3 250.3Z" fill="#dc8433" stroke="#dc8433"></path><path d="M1920 1055.7L1669.7 823.3L1678.7 1096.7Z" fill="#e08d37" stroke="#e08d37"></path><path d="M1669.7 823.3L1690.7 644L1529.3 672Z" fill="#e4973b" stroke="#e4973b"></path><path d="M1457.3 423.7L1502.3 222.3L1264 230.3Z" fill="#d97f31" stroke="#d97f31"></path><path d="M459.7 391.7L225.3 641L465.7 625Z" fill="#e8a040" stroke="#e8a040"></path><path d="M176.3 1048.7L209.3 1292L447.7 1050.7Z" fill="#e69c3e" stroke="#e69c3e"></path><path d="M459.7 1467.3L460.7 1668.7L610 1484.3Z" fill="#e69c3e" stroke="#e69c3e"></path><path d="M876.3 250.3L634 174.3L815.3 410.7Z" fill="#e08d37" stroke="#e08d37"></path><path d="M459.7 391.7L179.3 407.7L225.3 641Z" fill="#e69c3e" stroke="#e69c3e"></path><path d="M1078.7 0L876.3 250.3L1043.7 248.3Z" fill="#e08d37" stroke="#e08d37"></path><path d="M188.3 1471.3L460.7 1668.7L459.7 1467.3Z" fill="#eaa543" stroke="#eaa543"></path><path d="M828.3 1920L1088.7 1920L833.3 1725.7Z" fill="#d77a2f" stroke="#d77a2f"></path><path d="M1679.7 1718.7L1690.7 1483.3L1489.3 1471.3Z" fill="#de8835" stroke="#de8835"></path><path d="M1489.3 1471.3L1690.7 1483.3L1494.3 1279Z" fill="#e08d37" stroke="#e08d37"></path><path d="M1675.7 238.3L1502.3 222.3L1457.3 423.7Z" fill="#e4973b" stroke="#e4973b"></path><path d="M1264 230.3L1078.7 0L1043.7 248.3Z" fill="#d97f31" stroke="#d97f31"></path><path d="M1690.7 644L1718.7 442.7L1529.3 672Z" fill="#de8835" stroke="#de8835"></path><path d="M1920 621L1718.7 442.7L1690.7 644Z" fill="#d97f31" stroke="#d97f31"></path><path d="M0 1464.3L188.3 1471.3L209.3 1292Z" fill="#e4973b" stroke="#e4973b"></path><path d="M209.3 1292L188.3 1471.3L459.7 1467.3Z" fill="#ecaa46" stroke="#ecaa46"></path><path d="M634 174.3L401.7 227.3L459.7 391.7Z" fill="#e08d37" stroke="#e08d37"></path><path d="M1314 1920L1483.3 1745.7L1258 1681.7Z" fill="#eaa543" stroke="#eaa543"></path><path d="M1258 1681.7L1483.3 1745.7L1489.3 1471.3Z" fill="#d77a2f" stroke="#d77a2f"></path><path d="M1088.7 1920L1258 1681.7L1096.7 1702.7Z" fill="#ecaa46" stroke="#ecaa46"></path><path d="M401.7 227.3L179.3 407.7L459.7 391.7Z" fill="#de8835" stroke="#de8835"></path><path d="M225.3 641L0 886.3L251.3 884.3Z" fill="#e08d37" stroke="#e08d37"></path><path d="M828.3 1920L833.3 1725.7L606 1920Z" fill="#de8835" stroke="#de8835"></path><path d="M833.3 1725.7L1088.7 1920L1096.7 1702.7Z" fill="#eaa543" stroke="#eaa543"></path><path d="M606 1920L833.3 1725.7L636 1692.7Z" fill="#de8835" stroke="#de8835"></path><path d="M1920 1242L1678.7 1096.7L1701.7 1259Z" fill="#e29239" stroke="#e29239"></path><path d="M1920 1242L1920 1055.7L1678.7 1096.7Z" fill="#e4973b" stroke="#e4973b"></path><path d="M0 603L0 886.3L225.3 641Z" fill="#d77a2f" stroke="#d77a2f"></path><path d="M176.3 1048.7L0 1250L209.3 1292Z" fill="#dc8433" stroke="#dc8433"></path><path d="M0 886.3L0 1074.7L176.3 1048.7Z" fill="#e69c3e" stroke="#e69c3e"></path><path d="M1920 1055.7L1920 826.3L1669.7 823.3Z" fill="#d97f31" stroke="#d97f31"></path><path d="M1247 0L1078.7 0L1264 230.3Z" fill="#de8835" stroke="#de8835"></path><path d="M634 174.3L424.7 0L401.7 227.3Z" fill="#d77a2f" stroke="#d77a2f"></path><path d="M1078.7 0L815.3 0L876.3 250.3Z" fill="#e08d37" stroke="#e08d37"></path><path d="M1920 1459.3L1920 1242L1701.7 1259Z" fill="#eaa543" stroke="#eaa543"></path><path d="M1920 1459.3L1701.7 1259L1690.7 1483.3Z" fill="#d77a2f" stroke="#d77a2f"></path><path d="M0 1074.7L0 1250L176.3 1048.7Z" fill="#e69c3e" stroke="#e69c3e"></path><path d="M1502.3 222.3L1247 0L1264 230.3Z" fill="#e4973b" stroke="#e4973b"></path><path d="M1088.7 1920L1314 1920L1258 1681.7Z" fill="#de8835" stroke="#de8835"></path><path d="M451.7 1920L606 1920L460.7 1668.7Z" fill="#e4973b" stroke="#e4973b"></path><path d="M460.7 1668.7L606 1920L636 1692.7Z" fill="#e8a040" stroke="#e8a040"></path><path d="M1920 826.3L1920 621L1690.7 644Z" fill="#e69c3e" stroke="#e69c3e"></path><path d="M1718.7 442.7L1675.7 238.3L1457.3 423.7Z" fill="#de8835" stroke="#de8835"></path><path d="M1920 230.3L1675.7 238.3L1718.7 442.7Z" fill="#dc8433" stroke="#dc8433"></path><path d="M1502.3 222.3L1519.3 0L1247 0Z" fill="#ecaa46" stroke="#ecaa46"></path><path d="M401.7 227.3L184.3 242.3L179.3 407.7Z" fill="#d97f31" stroke="#d97f31"></path><path d="M815.3 0L622 0L634 174.3Z" fill="#dc8433" stroke="#dc8433"></path><path d="M179.3 407.7L0 603L225.3 641Z" fill="#d97f31" stroke="#d97f31"></path><path d="M1702.7 1920L1679.7 1718.7L1483.3 1745.7Z" fill="#de8835" stroke="#de8835"></path><path d="M1483.3 1745.7L1679.7 1718.7L1489.3 1471.3Z" fill="#d97f31" stroke="#d97f31"></path><path d="M188.3 1471.3L192.3 1688.7L460.7 1668.7Z" fill="#e29239" stroke="#e29239"></path><path d="M0 1464.3L192.3 1688.7L188.3 1471.3Z" fill="#e4973b" stroke="#e4973b"></path><path d="M198.3 0L184.3 242.3L401.7 227.3Z" fill="#eaa543" stroke="#eaa543"></path><path d="M179.3 407.7L0 429.7L0 603Z" fill="#e4973b" stroke="#e4973b"></path><path d="M1314 1920L1455.3 1920L1483.3 1745.7Z" fill="#d77a2f" stroke="#d77a2f"></path><path d="M1920 1713.7L1920 1459.3L1690.7 1483.3Z" fill="#e4973b" stroke="#e4973b"></path><path d="M192.3 1688.7L451.7 1920L460.7 1668.7Z" fill="#eaa543" stroke="#eaa543"></path><path d="M0 1250L0 1464.3L209.3 1292Z" fill="#e4973b" stroke="#e4973b"></path><path d="M1920 621L1920 446.7L1718.7 442.7Z" fill="#e29239" stroke="#e29239"></path><path d="M0 228.3L0 429.7L179.3 407.7Z" fill="#eaa543" stroke="#eaa543"></path><path d="M622 0L424.7 0L634 174.3Z" fill="#e8a040" stroke="#e8a040"></path><path d="M1744.7 0L1519.3 0L1675.7 238.3Z" fill="#e4973b" stroke="#e4973b"></path><path d="M1675.7 238.3L1519.3 0L1502.3 222.3Z" fill="#e29239" stroke="#e29239"></path><path d="M1455.3 1920L1702.7 1920L1483.3 1745.7Z" fill="#e4973b" stroke="#e4973b"></path><path d="M1679.7 1718.7L1920 1713.7L1690.7 1483.3Z" fill="#dc8433" stroke="#dc8433"></path><path d="M0 1920L215.3 1920L192.3 1688.7Z" fill="#d77a2f" stroke="#d77a2f"></path><path d="M192.3 1688.7L215.3 1920L451.7 1920Z" fill="#d77a2f" stroke="#d77a2f"></path><path d="M0 1464.3L0 1702.7L192.3 1688.7Z" fill="#e69c3e" stroke="#e69c3e"></path><path d="M1920 446.7L1920 230.3L1718.7 442.7Z" fill="#ecaa46" stroke="#ecaa46"></path><path d="M198.3 0L0 228.3L184.3 242.3Z" fill="#de8835" stroke="#de8835"></path><path d="M184.3 242.3L0 228.3L179.3 407.7Z" fill="#eaa543" stroke="#eaa543"></path><path d="M1702.7 1920L1920 1713.7L1679.7 1718.7Z" fill="#d97f31" stroke="#d97f31"></path><path d="M424.7 0L198.3 0L401.7 227.3Z" fill="#ecaa46" stroke="#ecaa46"></path><path d="M1920 230.3L1744.7 0L1675.7 238.3Z" fill="#d97f31" stroke="#d97f31"></path><path d="M1702.7 1920L1920 1920L1920 1713.7Z" fill="#de8835" stroke="#de8835"></path><path d="M0 1702.7L0 1920L192.3 1688.7Z" fill="#e29239" stroke="#e29239"></path><path d="M1920 230.3L1920 0L1744.7 0Z" fill="#e4973b" stroke="#e4973b"></path><path d="M198.3 0L0 0L0 228.3Z" fill="#e8a040" stroke="#e8a040"></path></g></svg>