<svg preserveAspectRatio="none" id="visual" viewBox="0 0 1920 122" width="1920" height="122" xmlns="http://www.w3.org/2000/svg" xmlns:xlink="http://www.w3.org/1999/xlink" version="1.1"><path d="M0 58L32 51.7C64 45.3 128 32.7 192 34C256 35.3 320 50.7 384 60.8C448 71 512 76 576 75.5C640 75 704 69 768 63.7C832 58.3 896 53.7 960 46.3C1024 39 1088 29 1152 35.3C1216 41.7 1280 64.3 1344 74.7C1408 85 1472 83 1536 82.8C1600 82.7 1664 84.3 1728 79.2C1792 74 1856 62 1888 56L1920 50L1920 0L1888 0C1856 0 1792 0 1728 0C1664 0 1600 0 1536 0C1472 0 1408 0 1344 0C1280 0 1216 0 1152 0C1088 0 1024 0 960 0C896 0 832 0 768 0C704 0 640 0 576 0C512 0 448 0 384 0C320 0 256 0 192 0C128 0 64 0 32 0L0 0Z" fill="#322824"></path></svg>