<svg preserveAspectRatio="none" viewBox="0 0 1920 122" width="1920" height="122" xmlns="http://www.w3.org/2000/svg" xmlns:xlink="http://www.w3.org/1999/xlink" version="1.1"><path d="M0 79L40 70.2C80 61.3 160 43.7 240 36.7C320 29.7 400 33.3 480 36C560 38.7 640 40.3 720 45.3C800 50.3 880 58.7 960 56C1040 53.3 1120 39.7 1200 45.8C1280 52 1360 78 1440 89.7C1520 101.3 1600 98.7 1680 88C1760 77.3 1840 58.7 1880 49.3L1920 40L1920 123L1880 123C1840 123 1760 123 1680 123C1600 123 1520 123 1440 123C1360 123 1280 123 1200 123C1120 123 1040 123 960 123C880 123 800 123 720 123C640 123 560 123 480 123C400 123 320 123 240 123C160 123 80 123 40 123L0 123Z" fill="#7b5a4e"></path><path d="M0 50L40 49C80 48 160 46 240 55.5C320 65 400 86 480 95.3C560 104.7 640 102.3 720 93C800 83.7 880 67.3 960 64.3C1040 61.3 1120 71.7 1200 78C1280 84.3 1360 86.7 1440 84.2C1520 81.7 1600 74.3 1680 78.3C1760 82.3 1840 97.7 1880 105.3L1920 113L1920 123L1880 123C1840 123 1760 123 1680 123C1600 123 1520 123 1440 123C1360 123 1280 123 1200 123C1120 123 1040 123 960 123C880 123 800 123 720 123C640 123 560 123 480 123C400 123 320 123 240 123C160 123 80 123 40 123L0 123Z" fill="#4e3931"></path></svg>