<svg preserveAspectRatio="none" id="visual" viewBox="0 0 1920 122" width="1920" height="122" xmlns="http://www.w3.org/2000/svg" xmlns:xlink="http://www.w3.org/1999/xlink" version="1.1"><path d="M0 69L32 66.5C64 64 128 59 192 51.2C256 43.3 320 32.7 384 26.7C448 20.7 512 19.3 576 29.5C640 39.7 704 61.3 768 66.7C832 72 896 61 960 50.2C1024 39.3 1088 28.7 1152 29.3C1216 30 1280 42 1344 48.5C1408 55 1472 56 1536 52.2C1600 48.3 1664 39.7 1728 34.5C1792 29.3 1856 27.7 1888 26.8L1920 26L1920 0L1888 0C1856 0 1792 0 1728 0C1664 0 1600 0 1536 0C1472 0 1408 0 1344 0C1280 0 1216 0 1152 0C1088 0 1024 0 960 0C896 0 832 0 768 0C704 0 640 0 576 0C512 0 448 0 384 0C320 0 256 0 192 0C128 0 64 0 32 0L0 0Z" fill="#322824"></path></svg>