<svg preserveAspectRatio="none" viewBox="0 0 1920 122" width="1920" height="122" xmlns="http://www.w3.org/2000/svg" xmlns:xlink="http://www.w3.org/1999/xlink" version="1.1"><path d="M0 18L40 18.3C80 18.7 160 19.3 240 32.3C320 45.3 400 70.7 480 83.3C560 96 640 96 720 87C800 78 880 60 960 59.8C1040 59.7 1120 77.3 1200 82.5C1280 87.7 1360 80.3 1440 67.8C1520 55.3 1600 37.7 1680 37.8C1760 38 1840 56 1880 65L1920 74L1920 123L1880 123C1840 123 1760 123 1680 123C1600 123 1520 123 1440 123C1360 123 1280 123 1200 123C1120 123 1040 123 960 123C880 123 800 123 720 123C640 123 560 123 480 123C400 123 320 123 240 123C160 123 80 123 40 123L0 123Z" fill="#7b5a4e"></path><path d="M0 101L40 94.8C80 88.7 160 76.3 240 72.2C320 68 400 72 480 78.2C560 84.3 640 92.7 720 96C800 99.3 880 97.7 960 88.8C1040 80 1120 64 1200 63.8C1280 63.7 1360 79.3 1440 86.5C1520 93.7 1600 92.3 1680 88C1760 83.7 1840 76.3 1880 72.7L1920 69L1920 123L1880 123C1840 123 1760 123 1680 123C1600 123 1520 123 1440 123C1360 123 1280 123 1200 123C1120 123 1040 123 960 123C880 123 800 123 720 123C640 123 560 123 480 123C400 123 320 123 240 123C160 123 80 123 40 123L0 123Z" fill="#322824"></path></svg>